<svg xmlns="http://www.w3.org/2000/svg" xmlns:xlink="http://www.w3.org/1999/xlink" width="35" height="25"><defs><path id="a" d="M8.44 25h22.555A4 4 0 0 0 35 20.997v-6.956S25.62 21.61 8.44 25z"/></defs><g fill="none" fill-rule="evenodd"><rect width="34" height="24" x=".5" y=".5" stroke="#E6772F" rx="4"/><use fill="#E6772F" xlink:href="#a"/><path fill="#1A1919" d="M6.401 13.438c-.263.224-.597.323-1.132.323h-.222V11.08h.222c.535 0 .856.091 1.132.327a1.362 1.362 0 0 1 0 2.03zm-.966-3.045H4.22v4.055h1.207c.642 0 1.106-.147 1.513-.47.482-.382.769-.959.769-1.557 0-1.197-.935-2.028-2.274-2.028zM8.09 10.393h.823v4.055H8.09zM10.936 11.947c-.498-.175-.643-.29-.643-.51 0-.255.26-.448.617-.448.247 0 .451.095.668.327l.43-.54c-.355-.3-.78-.45-1.244-.45-.75 0-1.321.499-1.321 1.159 0 .56.266.845 1.041 1.115.324.107.489.181.572.23a.478.478 0 0 1 .248.419c0 .33-.273.572-.643.572a.981.981 0 0 1-.901-.542l-.533.494c.381.534.838.773 1.467.773.858 0 1.462-.55 1.462-1.333 0-.645-.28-.937-1.22-1.266m1.48.474c0 1.193.978 2.117 2.237 2.117.355 0 .66-.067 1.034-.237v-.931c-.331.318-.622.444-.998.444-.832 0-1.421-.576-1.421-1.398 0-.777.608-1.392 1.385-1.392.392 0 .691.133 1.034.456v-.931a2.188 2.188 0 0 0-1.017-.248c-1.252 0-2.254.942-2.254 2.12M22.382 13.115l-1.13-2.722h-.901l1.796 4.157h.443l1.832-4.157h-.894l-1.146 2.722M24.797 14.448h2.343v-.687h-1.517v-1.095h1.459v-.687h-1.459v-.899h1.517v-.687h-2.343v4.055M28.754 12.257h-.24v-1.226h.253c.517 0 .793.207.793.602 0 .406-.276.624-.806.624zm1.657-.668c0-.76-.544-1.196-1.498-1.196h-1.227v4.055h.828v-1.63h.108l1.141 1.63h1.017l-1.333-1.71c.623-.121.964-.528.964-1.149z"/><path fill="#E6772F" d="M20.468 12.43c0 1.168-.989 2.114-2.21 2.114-1.22 0-2.208-.946-2.208-2.113 0-1.168.989-2.114 2.209-2.114 1.22 0 2.209.946 2.209 2.114"/></g></svg>