<svg xmlns="http://www.w3.org/2000/svg" width="35" height="25"><g fill="none" fill-rule="evenodd"><rect width="35" height="25" fill="#0072CE" rx="4"/><path fill="#FFF" d="M32.433 14.496h-1.534c-.153 0-.254.005-.34.062-.089.056-.123.14-.123.25 0 .13.075.219.184.257.089.03.184.04.324.04l.456.011c.46.011.767.09.955.279.034.026.054.056.078.085v-.984zm0 2.28c-.205.294-.603.443-1.142.443h-1.625v-.742h1.619c.16 0 .272-.02.34-.085a.302.302 0 0 0 .1-.226c0-.1-.041-.18-.103-.229-.061-.052-.15-.076-.297-.076-.79-.027-1.775.024-1.775-1.071 0-.502.324-1.03 1.207-1.03h1.676v-.689h-1.557c-.47 0-.812.11-1.053.283v-.283H27.52c-.369 0-.8.09-1.005.283v-.283h-4.113v.283c-.327-.232-.88-.283-1.134-.283h-2.713v.283c-.26-.247-.835-.283-1.186-.283h-3.036l-.695.74-.65-.74H8.452V17.9h4.45l.716-.75.675.75 2.742.002v-1.135h.27c.364.005.793-.01 1.172-.17v1.303h2.262V16.64h.11c.139 0 .152.005.152.142v1.116h6.873c.436 0 .892-.11 1.145-.31v.31h2.18c.454 0 .897-.063 1.234-.223v-.9zm-3.356-1.381c.164.166.251.377.251.733 0 .744-.473 1.091-1.321 1.091h-1.639v-.742H28c.16 0 .273-.02.344-.085a.304.304 0 0 0 .1-.226c0-.1-.046-.18-.103-.229-.065-.052-.154-.076-.3-.076-.787-.027-1.772.024-1.772-1.071 0-.502.32-1.03 1.203-1.03h1.686v.736h-1.543c-.153 0-.252.006-.337.063-.092.056-.126.139-.126.248 0 .131.078.22.184.258.088.03.184.04.327.04l.453.011c.457.011.77.089.96.279zm-7.592-.214c-.112.066-.252.071-.415.071h-1.022v-.777h1.036c.15 0 .3.003.401.063.11.056.174.163.174.31a.371.371 0 0 1-.174.333zm.508.43c.188.068.34.19.412.291.12.169.136.327.14.631v.686H21.7v-.433c0-.208.02-.516-.136-.677-.123-.124-.31-.153-.617-.153h-.9v1.263h-.845v-3.46h1.943c.426 0 .736.02 1.012.164.266.158.433.373.433.768a.97.97 0 0 1-.597.92zm1.063-1.851h2.808v.715h-1.97v.63h1.922v.705h-1.922v.688l1.97.003v.718h-2.808v-3.46zm-5.676 1.596h-1.087v-.88h1.097c.303 0 .514.12.514.423 0 .3-.2.457-.524.457zm-1.925 1.549-1.292-1.41 1.292-1.364v2.774zm-3.336-.407H10.05v-.688h1.847v-.706H10.05v-.629h2.11l.92 1.008-.961 1.015zm6.688-1.599c0 .961-.73 1.16-1.465 1.16h-1.05v1.16h-1.635l-1.036-1.145-1.076 1.145H9.212v-3.46h3.384l1.035 1.135 1.07-1.134h2.689c.667 0 1.417.181 1.417 1.14zM5.198 9.773l-.576-1.38-.572 1.38h1.148zm12.686-.55c-.116.07-.253.072-.416.072h-1.022v-.769h1.036c.146 0 .3.007.399.063.109.05.176.158.176.306 0 .15-.064.272-.173.329zm7.291.55-.582-1.38-.58 1.38h1.162zm-13.591 1.492h-.863l-.003-2.709-1.22 2.71H8.76L7.536 8.553v2.711h-1.71l-.324-.771H3.75l-.326.771H2.51l1.506-3.459h1.25l1.431 3.275V7.806H8.07l1.102 2.347 1.011-2.347h1.4v3.46zm3.437 0h-2.81V7.806h2.81v.72h-1.969v.624h1.922v.709h-1.922v.69h1.97v.716zm3.963-2.527a.974.974 0 0 1-.593.922c.184.069.342.19.416.291.12.172.14.326.14.635v.68h-.849l-.003-.437c0-.208.02-.508-.133-.674-.123-.122-.31-.148-.613-.148h-.903v1.258h-.842V7.806h1.936c.43 0 .746.011 1.018.166.266.154.426.38.426.766zm1.346 2.527h-.858V7.806h.858v3.46zm9.96 0h-1.193L27.503 8.67v2.596h-1.714l-.327-.771h-1.748l-.318.771h-.984c-.409 0-.927-.089-1.22-.382-.296-.294-.45-.692-.45-1.32 0-.514.092-.983.454-1.353.272-.277.698-.404 1.278-.404h.814v.741h-.797c-.307 0-.48.045-.648.205-.143.146-.241.421-.241.784 0 .37.075.638.231.812.13.137.365.178.586.178h.378l1.186-2.72h1.26l1.425 3.272V7.806h1.28l1.48 2.41v-2.41h.862v3.46zm-27.79.68h1.438l.324-.769h.725l.324.768h2.828v-.587l.252.59H9.86l.252-.599v.596h7.03l-.004-1.26h.136c.095.003.123.011.123.166v1.094h3.635v-.293c.294.154.75.293 1.35.293h1.53l.326-.768h.726l.32.768h2.947v-.73l.447.73h2.361V7.12h-2.337v.57l-.327-.57h-2.399v.57l-.3-.57h-3.24c-.542 0-1.019.075-1.404.282V7.12h-2.235v.282c-.245-.214-.58-.282-.95-.282H9.678L9.13 8.366 8.568 7.12H5.996v.57l-.283-.57H3.519L2.5 9.414v2.53z"/></g></svg>