<svg xmlns="http://www.w3.org/2000/svg" width="35" height="25"><g fill="none" fill-rule="evenodd"><rect width="34" height="24" x=".5" y=".5" fill="#FFF" stroke="#4A90E2" rx="4"/><path fill="#26337A" d="m13.573 16.796 1.369-8.583h2.19l-1.37 8.583h-2.189M23.704 8.423a5.364 5.364 0 0 0-1.962-.36c-2.165 0-3.688 1.165-3.701 2.833-.014 1.234 1.087 1.922 1.917 2.332.854.42 1.14.69 1.137 1.065-.006.575-.681.838-1.31.838-.877 0-1.343-.13-2.063-.45l-.282-.136-.306 1.92c.51.24 1.457.447 2.44.458 2.3 0 3.795-1.15 3.812-2.932.008-.978-.575-1.72-1.839-2.332-.765-.398-1.234-.661-1.23-1.064.001-.357.398-.739 1.255-.739a3.807 3.807 0 0 1 1.639.33l.196.098.297-1.86m2.915 5.329c.181-.493.872-2.4.872-2.4-.013.023.18-.496.291-.818l.148.74.507 2.478h-1.818zM29.32 8.22h-1.692c-.525 0-.918.152-1.148.712l-3.25 7.866h2.299s.375-1.058.46-1.29l2.804.004c.066.3.267 1.286.267 1.286h2.032L29.32 8.221zM11.736 8.22l-2.143 5.852-.23-1.19c-.399-1.37-1.642-2.856-3.032-3.6l1.96 7.507 2.317-.002 3.448-8.567h-2.32"/><path fill="#EC982D" d="M7.604 8.214h-3.53l-.03.178c2.748.71 4.565 2.427 5.32 4.49l-.768-3.944c-.132-.544-.517-.705-.992-.724"/></g></svg>