<svg xmlns="http://www.w3.org/2000/svg" width="35" height="25"><g fill="none" fill-rule="evenodd"><rect width="34" height="24" x=".5" y=".5" fill="#FFF" stroke="#BFBFBF" rx="4"/><path fill="#231F20" fill-rule="nonzero" d="M9.51 21.748v-1.24a.736.736 0 0 0-.777-.785.764.764 0 0 0-.694.351.725.725 0 0 0-.653-.35.653.653 0 0 0-.578.293v-.244h-.43v1.975h.434V20.66a.463.463 0 0 1 .483-.525c.286 0 .43.186.43.521v1.1h.434V20.66a.465.465 0 0 1 .484-.525c.293 0 .433.186.433.521v1.1l.434-.01zm6.42-1.975h-.707v-.6h-.434v.6h-.392v.392h.4v.91c0 .458.178.73.686.73.19.001.377-.052.538-.152l-.124-.368a.793.793 0 0 1-.38.112c-.207 0-.286-.133-.286-.33v-.902h.703l-.004-.392zm3.665-.05a.583.583 0 0 0-.52.29v-.24h-.426v1.975h.43V20.64c0-.326.14-.508.413-.508a.7.7 0 0 1 .268.05l.133-.413a.92.92 0 0 0-.306-.054l.008.008zm-5.541.207a1.477 1.477 0 0 0-.806-.207c-.5 0-.827.24-.827.632 0 .323.24.521.682.583l.207.029c.235.033.347.095.347.207 0 .152-.157.24-.45.24a1.052 1.052 0 0 1-.657-.207l-.207.334c.25.175.55.265.855.257.57 0 .901-.27.901-.645 0-.376-.26-.529-.69-.591l-.207-.029c-.185-.025-.334-.062-.334-.194s.14-.232.376-.232c.218.003.43.061.62.17l.19-.347zm11.51-.207a.583.583 0 0 0-.52.29v-.24h-.426v1.975h.43V20.64c0-.326.14-.508.413-.508a.7.7 0 0 1 .268.05l.133-.413a.92.92 0 0 0-.306-.054l.008.008zm3.306 2.025h-.048v-.238l-.084.207h-.05l-.085-.207v.236h-.047v-.29h.072l.085.207.085-.206h.062l.01.29zm.194-.29a.17.17 0 0 1 .062.011.134.134 0 0 1 .079.074.174.174 0 0 1 0 .12.13.13 0 0 1-.079.075.178.178 0 0 1-.062 0h-.116v-.29l.116.01zm-.068.044v.207h.07c.015.002.03.002.046 0a.083.083 0 0 0 .05-.052.13.13 0 0 0 0-.08.087.087 0 0 0-.02-.032.089.089 0 0 0-.03-.02.126.126 0 0 0-.046 0l-.07-.023zm-8.963-.744a.998.998 0 0 0 1.054 1.033c.258.013.511-.07.71-.235l-.206-.347a.868.868 0 0 1-.517.177.634.634 0 0 1 0-1.264.868.868 0 0 1 .517.178l.207-.348a1.033 1.033 0 0 0-.711-.235.998.998 0 0 0-1.054 1.033v.008zm4.025 0v-.985h-.43v.24a.75.75 0 0 0-.62-.29 1.033 1.033 0 0 0 0 2.066.75.75 0 0 0 .62-.289v.24h.43v-.982zm-1.6 0a.597.597 0 1 1 1.193.07.597.597 0 0 1-1.192-.07zm-5.185-1.033a1.033 1.033 0 0 0 .029 2.066 1.2 1.2 0 0 0 .814-.27l-.207-.319a.94.94 0 0 1-.574.207.548.548 0 0 1-.591-.483h1.467v-.166c0-.62-.385-1.033-.938-1.033v-.002zm0 .385a.49.49 0 0 1 .5.479H16.74a.508.508 0 0 1 .524-.48h.009zm10.76.65v-1.78h-.413v1.032a.75.75 0 0 0-.62-.289 1.033 1.033 0 0 0 0 2.066.75.75 0 0 0 .62-.289v.24h.413v-.98zm-1.6 0a.597.597 0 1 1 1.193.07.597.597 0 0 1-1.192-.07zm-14.51 0v-.987h-.419v.24a.75.75 0 0 0-.62-.29 1.033 1.033 0 0 0 0 2.066.75.75 0 0 0 .62-.289v.24h.43l-.01-.98zm-1.599 0a.597.597 0 1 1 .6.633.593.593 0 0 1-.593-.633h-.007z"/><g fill-rule="nonzero"><path fill="#FF5F00" d="M13.912 4.722h6.508v11.696h-6.508z"/><path fill="#EB001B" d="M14.325 10.571a7.426 7.426 0 0 1 2.841-5.85 7.438 7.438 0 1 0 0 11.697 7.426 7.426 0 0 1-2.84-5.847z"/><path fill="#F79E1B" d="M28.83 15.877h-.074v-.772l-.132.671h-.078l-.132-.671v.765h-.074v-.94h.113l.132.672.132-.671h.113v.946zm.323-.96h.058l.051.04.045.06c.013.024.024.051.033.081l-.062.088a.288.288 0 0 0-.051-.101c-.023-.024-.049-.036-.074-.034a.085.085 0 0 0-.065 0 .195.195 0 0 0-.052.067.462.462 0 0 0-.032.108.804.804 0 0 0 0 .275c.007.04.018.076.032.107.015.03.033.053.052.068a.083.083 0 0 0 .065 0c.05.002.097-.049.125-.135l.058.088a.436.436 0 0 1-.035.08l-.042.06-.052.04h-.058a.143.143 0 0 1-.096-.033c-.057-.046-.101-.138-.123-.255a1.088 1.088 0 0 1 0-.39.444.444 0 0 1 .123-.254.152.152 0 0 1 .1.047v-.007zm.048-4.346a7.438 7.438 0 0 1-12.035 5.847 7.438 7.438 0 0 0 0-11.696 7.438 7.438 0 0 1 12.035 5.847v.002z"/></g><path d="M2 0h30.331v24.878H2z"/></g></svg>